<svg viewBox="0 0 333.57 333.57" xmlns="http://www.w3.org/2000/svg"><path d="m333.57 166.79a166.79 166.79 0 1 1 -166.79-166.79 166.78 166.78 0 0 1 166.79 166.79z" fill="#e11b22"/><path d="m264.08 164.91a8.38 8.38 0 0 0 -6-2h-31.81v-2.35a8.57 8.57 0 0 0 -1.48-6.59c-1.17-1.53-3.52-3.34-8.09-3.34h-30.32v-10.22a22.6 22.6 0 0 0 31.62-9.41 23.11 23.11 0 1 0 2.55-11.21 23 23 0 0 0 -22.91-22.23 22.72 22.72 0 0 0 -11.27 3.07v-31.3l-116.75 20.74v157.54l116.76 19.39v-29.75h20.08.25a23 23 0 0 0 16.77-12.93h21.16c15.22 0 21.3-14.33 22.43-22.43v-29.3c0-4.17-1.63-6.48-2.99-7.68zm-23.15-50.5a15.78 15.78 0 1 1 -15.78 15.78 15.8 15.8 0 0 1 15.78-15.78zm-43.28-9.69a15.78 15.78 0 1 1 -11.27 26.78v-22a15.71 15.71 0 0 1 11.27-4.78zm-44.78 39.07-22.84.76v61.45l-12.32-.6v-60.4l-18.94.59v-11.12l54.1-3zm66.3 15.45-.11 52.09c0 15.59-11 18.33-13.13 18.71h-19.55v-72.24h30.32c1.55 0 2.23.34 2.37.52a1.52 1.52 0 0 1 .1.92zm25.47 57.84h-18.88a34.26 34.26 0 0 0 .51-5.75v-41.25h32.14a1.45 1.45 0 0 1 .91.27c.13.12.54.63.54 2.23v28.78c-.06.64-2.47 15.72-15.22 15.72z" fill="#fff"/></svg>